#N canvas 84 128 560 516 10;
#X obj -91 166 writesf~ 1;
#X obj -93 75 adc~ 1;
#X msg -81 138 open talk.wav;
#X msg 10 137 start;
#X msg 54 138 stop;
#X msg 94 138 print;
#X obj 239 110 soundfiler;
#X obj 168 265 phasor~;
#X obj 167 334 *~;
#X obj 182 310 sig~;
#X obj 168 186 sig~;
#X msg 166 140 44100 \$1;
#X obj 166 163 /;
#X obj 259 306 table out;
#X obj 166 363 tabread4~ out;
#X msg 239 87 read -resize talk.wav out;
#X msg 264 203 -1;
#X msg 192 203 1;
#X text -115 20 reverse talker for libPD app;
#X obj -92 107 *~ 1;
#X text 75 186 play in revrse;
#X floatatom -39 74 5 0 0 0 - - -, f 5;
#X obj 239 64 loadbang;
#X obj 168 229 *~ 0;
#X msg 228 203 0;
#X text 106 59 comment;
#X text -90 478 array reversing based on code from http://forum.pdpatchrepo.info/topic/5680/soundfiler-read-path-issues-help-please/3
;
#X obj 165 413 dac~;
#X obj 166 388 *~ 1;
#X obj 115 208 r bwd;
#X obj 46 361 *~;
#X obj -5 344 tgl 15 0 empty empty empty 17 7 0 10 -262144 -1 -1 1
1;
#X obj 45 337 osc~ 33;
#X obj -11 324 r onOff;
#X connect 1 0 19 0;
#X connect 2 0 0 0;
#X connect 3 0 0 0;
#X connect 4 0 0 0;
#X connect 5 0 0 0;
#X connect 6 0 11 0;
#X connect 6 0 9 0;
#X connect 7 0 8 0;
#X connect 8 0 14 0;
#X connect 9 0 8 1;
#X connect 10 0 23 0;
#X connect 11 0 12 0;
#X connect 12 0 10 0;
#X connect 14 0 28 0;
#X connect 15 0 6 0;
#X connect 16 0 23 1;
#X connect 17 0 23 1;
#X connect 19 0 0 0;
#X connect 21 0 19 1;
#X connect 22 0 15 0;
#X connect 23 0 7 0;
#X connect 24 0 23 1;
#X connect 28 0 27 0;
#X connect 29 0 23 1;
#X connect 30 0 27 0;
#X connect 31 0 30 1;
#X connect 32 0 30 0;
#X connect 33 0 31 0;
